# xmcd CD database file
#
# Track frame offsets:
#	150
#	18191
#	33784
#	49101
#	61663
#	79525
#	98226
#	117256
#	130346
#	148157
#
# Disc length: 2183 seconds
#
# Revision: 0
# Processed by: cddbd v1.5.2PL0 Copyright (c) Steve Scherf et al.
# Submitted via: CDex 1.70beta2
#
DISCID=7908850a
DTITLE=Taylor, Jamie C. - Cdn. - Looking Ahead
DYEAR=1900
DGENRE=Country
TTITLE0=In Front of Me
TTITLE1=The Calls
TTITLE2=Oh Well
TTITLE3=I'm the One
TTITLE4=Wild Horses
TTITLE5=A Moment To Soon
TTITLE6=Just Like Jesse Jamesa
TTITLE7=Gotta Be Love
TTITLE8=Edge of Alone
TTITLE9=What's A Girl To Do
EXTD=
EXTT0=
EXTT1=
EXTT2=
EXTT3=
EXTT4=
EXTT5=
EXTT6=
EXTT7=
EXTT8=
EXTT9=
PLAYORDER=
